<svg width="216" height="174" viewBox="0 0 216 174" fill="none" xmlns="http://www.w3.org/2000/svg">
<path d="M39.4545 112H22V0H39.4545L80.9091 48.3137L125.636 3.29412L142 0L82 74L39.5 26.3529L39.4545 112Z" fill="#FFFFFF"/>
<path d="M82 74L24 8.83582L39.6154 0L82 48.597V74Z" fill="#FFFFFF"/>
<path d="M82 74L145 0H123.276L82 48.597V74Z" fill="#FFFFFF"/>
<path d="M178.964 112L138 66.0377L150.179 54L200 112H178.964Z" fill="#FFFFFF"/>
<path d="M157.5 49.5L200 0H177.931L135.5 49.5H157.5Z" fill="#FFFFFF"/>
<path d="M100.944 112L158 49H136.056L79 112H100.944Z" fill="#FFFFFF"/>
<path d="M6.22571 143.796L1.58113 131.003H1.50207C1.5416 131.425 1.57454 131.997 1.6009 132.719C1.62725 133.428 1.64042 134.17 1.64042 134.947V143.796H0V129.204H2.62863L6.97674 141.159H7.0558L11.483 129.204H14.0918V143.796H12.3328V134.824C12.3328 134.116 12.346 133.414 12.3724 132.719C12.4119 132.025 12.4448 131.459 12.4712 131.023H12.3921L7.68825 143.796H6.22571Z" fill="#FFFFFF"/>
<path d="M37.9319 143.796H35.8369L30.8365 136.827L29.3938 138.135V143.796H27.615V129.204H29.3938V136.398C29.789 135.935 30.1909 135.471 30.5994 135.008C31.0078 134.545 31.4163 134.082 31.8247 133.619L35.6392 129.204H37.7145L32.1212 135.56L37.9319 143.796Z" fill="#FFFFFF"/>
<path d="M65.9091 129.204C67.7537 129.204 69.0977 129.579 69.941 130.328C70.7842 131.078 71.2059 132.134 71.2059 133.496C71.2059 134.3 71.028 135.056 70.6722 135.764C70.3297 136.459 69.7433 137.025 68.9132 137.46C68.0963 137.896 66.9829 138.114 65.5731 138.114H63.9524V143.796H62.1737V129.204H65.9091ZM65.751 130.778H63.9524V136.541H65.3755C66.7194 136.541 67.7208 136.316 68.3796 135.866C69.0384 135.417 69.3678 134.654 69.3678 133.578C69.3678 132.638 69.0779 131.936 68.4982 131.473C67.9184 131.01 67.0027 130.778 65.751 130.778Z" fill="#FFFFFF"/>
<path d="M87.7182 129.204C89.4706 129.204 90.7619 129.552 91.592 130.247C92.4352 130.928 92.8569 131.963 92.8569 133.353C92.8569 134.129 92.7185 134.777 92.4418 135.294C92.1651 135.812 91.8094 136.228 91.3746 136.541C90.9529 136.841 90.505 137.079 90.0306 137.256L93.9044 143.796H91.8291L88.4099 137.767H85.6034V143.796H83.8247V129.204H87.7182ZM87.6194 130.798H85.6034V136.214H87.7182C88.8645 136.214 89.7012 135.982 90.2282 135.519C90.7553 135.042 91.0188 134.347 91.0188 133.435C91.0188 132.481 90.7421 131.807 90.1887 131.411C89.6353 131.003 88.7789 130.798 87.6194 130.798Z" fill="#FFFFFF"/>
<path d="M113.69 143.796H105.804V129.204H113.69V130.819H107.583V135.376H113.334V136.97H107.583V142.181H113.69V143.796Z" fill="#FFFFFF"/>
<path d="M134.475 139.892C134.475 141.187 134.02 142.195 133.111 142.917C132.202 143.639 130.977 144 129.435 144C128.645 144 127.913 143.939 127.241 143.816C126.569 143.693 126.009 143.523 125.561 143.305V141.548C126.036 141.766 126.622 141.963 127.32 142.14C128.032 142.317 128.763 142.406 129.514 142.406C130.568 142.406 131.359 142.195 131.886 141.772C132.426 141.35 132.696 140.778 132.696 140.056C132.696 139.579 132.597 139.177 132.4 138.85C132.202 138.523 131.859 138.223 131.372 137.951C130.898 137.665 130.232 137.365 129.376 137.052C128.177 136.602 127.268 136.05 126.648 135.396C126.042 134.743 125.739 133.85 125.739 132.719C125.739 131.943 125.93 131.282 126.312 130.737C126.694 130.178 127.221 129.749 127.893 129.45C128.579 129.15 129.363 129 130.245 129C131.023 129 131.734 129.075 132.38 129.225C133.026 129.375 133.612 129.572 134.139 129.817L133.586 131.391C133.098 131.173 132.564 130.989 131.985 130.839C131.418 130.689 130.825 130.614 130.206 130.614C129.323 130.614 128.658 130.812 128.21 131.207C127.762 131.589 127.538 132.099 127.538 132.74C127.538 133.23 127.637 133.639 127.834 133.966C128.032 134.293 128.355 134.586 128.803 134.845C129.251 135.104 129.857 135.383 130.621 135.683C131.451 135.996 132.149 136.337 132.716 136.704C133.296 137.059 133.73 137.488 134.02 137.992C134.323 138.496 134.475 139.129 134.475 139.892Z" fill="#FFFFFF"/>
<path d="M151.469 143.796H149.69V130.819H145.282V129.204H155.856V130.819H151.469V143.796Z" fill="#FFFFFF"/>
<path d="M171.641 143.796H166.542V142.733L168.202 142.345V130.676L166.542 130.267V129.204H171.641V130.267L169.981 130.676V142.345L171.641 142.733V143.796Z" fill="#FFFFFF"/>
<path d="M190.177 136.091H195.059V143.244C194.295 143.503 193.524 143.693 192.747 143.816C191.969 143.939 191.087 144 190.098 144C188.636 144 187.404 143.7 186.402 143.101C185.401 142.488 184.637 141.623 184.11 140.505C183.596 139.375 183.339 138.04 183.339 136.5C183.339 134.974 183.629 133.653 184.209 132.535C184.788 131.418 185.618 130.553 186.699 129.94C187.793 129.313 189.11 129 190.652 129C191.442 129 192.187 129.075 192.885 129.225C193.597 129.375 194.255 129.586 194.861 129.858L194.189 131.452C193.689 131.221 193.122 131.023 192.49 130.86C191.871 130.696 191.225 130.614 190.553 130.614C188.866 130.614 187.549 131.139 186.6 132.188C185.665 133.237 185.197 134.674 185.197 136.5C185.197 137.658 185.375 138.687 185.73 139.586C186.099 140.471 186.673 141.166 187.45 141.67C188.227 142.161 189.248 142.406 190.513 142.406C191.133 142.406 191.66 142.372 192.094 142.304C192.529 142.236 192.925 142.154 193.28 142.059V137.726H190.177V136.091Z" fill="#FFFFFF"/>
<path d="M216 143.796H208.114V129.204H216V130.819H209.893V135.376H215.644V136.97H209.893V142.181H216V143.796Z" fill="#FFFFFF"/>
<path d="M57.6364 161.119C57.4129 161.224 57.2198 161.34 57.0572 161.466C56.915 161.592 56.7727 161.718 56.6304 161.844C55.7769 162.641 54.9639 163.47 54.1917 164.331C53.4397 165.192 52.7182 166.105 52.0272 167.07C51.9053 167.238 51.7732 167.417 51.6309 167.606C51.509 167.795 51.3769 167.973 51.2346 168.141C51.1533 168.246 51.0619 168.33 50.9603 168.393C50.879 168.456 50.7875 168.456 50.6859 168.393C50.564 168.33 50.442 168.267 50.3201 168.204C50.1778 168.141 50.0864 168.015 50.0457 167.826C50.0254 167.721 50.0152 167.627 50.0152 167.543C49.9949 167.438 49.9949 167.333 50.0152 167.228C50.0559 167.06 50.0965 166.892 50.1372 166.724C50.1575 166.556 50.188 166.388 50.2286 166.22C50.4522 165.507 50.6961 164.824 50.9603 164.174C51.2245 163.502 51.5192 162.841 51.8443 162.19C51.9459 161.98 52.0577 161.812 52.1797 161.686C52.4032 161.497 52.6369 161.476 52.8808 161.623C53.1044 161.728 53.1958 161.938 53.1552 162.253C53.1349 162.358 53.0942 162.452 53.0332 162.536C52.9926 162.599 52.9519 162.683 52.9113 162.788C52.6471 163.292 52.4032 163.806 52.1797 164.331C51.9764 164.856 51.7732 165.391 51.57 165.937L51.3566 166.598C51.4988 166.556 51.6005 166.493 51.6614 166.409C51.7224 166.304 51.7834 166.21 51.8443 166.126C52.4947 165.265 53.1755 164.436 53.8868 163.638C54.5981 162.841 55.3399 162.064 56.1122 161.308C56.6 160.804 57.1385 160.343 57.7279 159.923C57.8702 159.839 58.0023 159.776 58.1242 159.734C58.2665 159.671 58.4189 159.692 58.5815 159.797C58.866 159.965 58.9879 160.248 58.9473 160.647C58.9473 160.941 58.8762 161.256 58.7339 161.592C58.5713 161.969 58.4087 162.347 58.2461 162.725C58.1039 163.103 57.9514 163.481 57.7889 163.859C57.5247 164.488 57.2808 165.129 57.0572 165.779C56.8337 166.409 56.6508 167.06 56.5085 167.732C56.4679 167.9 56.4374 168.078 56.417 168.267C56.3967 168.456 56.3967 168.645 56.417 168.834C56.4374 169.128 56.6 169.222 56.9048 169.117C57.1284 169.054 57.3316 168.96 57.5145 168.834C57.6974 168.708 57.8702 168.571 58.0327 168.424C58.7441 167.837 59.3944 167.217 59.9838 166.567C60.5935 165.895 61.1625 165.192 61.6909 164.457C61.9348 164.121 62.199 163.785 62.4835 163.449C62.6258 163.26 62.7782 163.229 62.9408 163.355C63.0627 163.481 63.0627 163.617 62.9408 163.764C62.8189 163.932 62.6969 164.1 62.575 164.268C62.453 164.436 62.3311 164.604 62.2092 164.772C61.7214 165.507 61.193 166.21 60.6239 166.882C60.0549 167.553 59.4554 168.204 58.8253 168.834C58.5815 169.065 58.3274 169.285 58.0632 169.495C57.799 169.726 57.5043 169.915 57.1792 170.062C56.7117 170.272 56.3053 170.282 55.9598 170.093C55.6143 169.904 55.3907 169.547 55.2891 169.023C55.2078 168.603 55.1977 168.194 55.2586 167.795C55.3196 167.396 55.4009 166.997 55.5025 166.598C55.7057 165.821 55.9496 165.076 56.2341 164.363C56.5187 163.628 56.8337 162.904 57.1792 162.19C57.2605 162.022 57.3316 161.865 57.3926 161.718C57.4535 161.55 57.5348 161.35 57.6364 161.119Z" fill="#FFFFFF"/>
<path d="M68.4366 163.135C68.4976 163.218 68.5078 163.292 68.4671 163.355C68.4265 163.418 68.3858 163.481 68.3452 163.544C68.1623 163.775 67.9794 164.006 67.7964 164.237C67.6135 164.447 67.4306 164.667 67.2477 164.898C66.8209 165.402 66.384 165.884 65.9369 166.346C65.4898 166.808 65.0427 167.28 64.5955 167.763C64.1484 168.225 63.681 168.603 63.1932 168.897C62.929 169.044 62.6648 169.149 62.4006 169.212C62.1568 169.275 61.8926 169.222 61.608 169.054C61.3235 168.886 61.1406 168.666 61.0593 168.393C60.9577 168.12 60.917 167.826 60.9374 167.511C60.9374 167.175 60.9882 166.85 61.0898 166.535C61.1711 166.22 61.2625 165.905 61.3642 165.591C61.5267 165.15 61.6995 164.719 61.8824 164.3C62.0653 163.859 62.2685 163.428 62.4921 163.009C62.5124 162.967 62.5327 162.935 62.5531 162.914C62.5734 162.872 62.5937 162.83 62.614 162.788C62.8782 162.368 63.1628 162.263 63.4676 162.473C63.7725 162.641 63.8334 162.935 63.6505 163.355C63.4879 163.712 63.3253 164.058 63.1628 164.394C63.0205 164.73 62.8681 165.076 62.7055 165.433C62.4819 165.958 62.2889 166.535 62.1263 167.165C62.0856 167.27 62.0653 167.385 62.0653 167.511C62.0653 167.616 62.0653 167.721 62.0653 167.826C62.0653 168.246 62.2685 168.403 62.675 168.298C62.9798 168.215 63.2847 168.057 63.5895 167.826C63.9554 167.574 64.311 167.27 64.6565 166.913C65.2256 166.367 65.7844 165.811 66.3332 165.244C66.8819 164.677 67.4001 164.079 67.8879 163.449C67.9692 163.365 68.02 163.302 68.0403 163.26C68.1013 163.197 68.1623 163.145 68.2232 163.103C68.2842 163.061 68.3553 163.072 68.4366 163.135ZM64.1078 161.119C64.0062 161.077 63.9452 161.014 63.9249 160.93C63.9249 160.825 63.9249 160.71 63.9249 160.584C64.0062 160.29 64.0875 159.996 64.1688 159.702C64.25 159.408 64.3821 159.115 64.5651 158.821C64.6463 158.695 64.7581 158.621 64.9004 158.6C65.0427 158.579 65.1748 158.6 65.2967 158.663C65.5812 158.852 65.6422 159.104 65.4796 159.419C65.1951 159.986 64.8597 160.479 64.4736 160.899C64.3517 161.067 64.2297 161.14 64.1078 161.119Z" fill="#FFFFFF"/>
<path d="M73.4273 163.953C73.5086 164.079 73.5188 164.195 73.4578 164.3C73.3968 164.384 73.3359 164.467 73.2749 164.551C72.8278 165.181 72.3197 165.737 71.7507 166.22C71.2019 166.682 70.6024 167.102 69.9521 167.48C69.6675 167.648 69.383 167.742 69.0985 167.763C68.8343 167.784 68.5498 167.774 68.2449 167.732C67.7571 167.648 67.3812 167.354 67.117 166.85C66.9544 166.577 66.8426 166.294 66.7816 166C66.7207 165.706 66.7003 165.402 66.7207 165.087C66.8426 163.722 67.3405 162.494 68.2144 161.403C68.377 161.193 68.5498 161.014 68.7327 160.867C68.9359 160.699 69.1696 160.574 69.4338 160.49C69.8606 160.322 70.2061 160.353 70.4703 160.584C70.7548 160.815 70.8666 161.172 70.8056 161.655C70.7853 161.927 70.6837 162.19 70.5008 162.442C70.2772 162.82 70.013 163.156 69.7082 163.449C69.4237 163.743 69.0782 163.964 68.6717 164.111C68.2856 164.216 68.062 164.499 68.001 164.961C67.9807 165.15 67.9705 165.349 67.9705 165.559C67.9909 165.748 68.0417 165.937 68.123 166.126C68.2652 166.567 68.5802 166.808 69.068 166.85C69.4135 166.85 69.7895 166.745 70.1959 166.535C70.7243 166.283 71.2121 165.989 71.6592 165.654C72.1063 165.318 72.5026 164.919 72.8481 164.457C72.9294 164.352 73.0107 164.258 73.092 164.174C73.1733 164.069 73.2851 163.995 73.4273 163.953ZM69.8301 161.686C69.444 161.917 69.1391 162.211 68.9156 162.568C68.7123 162.904 68.5498 163.281 68.4278 163.701C69.2204 163.26 69.6879 162.589 69.8301 161.686Z" fill="#FFFFFF"/>
<path d="M74.3671 161.497C74.5297 161.623 74.6923 161.707 74.8549 161.749C75.0378 161.77 75.2105 161.791 75.3731 161.812C75.678 161.854 75.9523 161.927 76.1962 162.032C76.6027 162.2 76.7144 162.494 76.5315 162.914C76.4909 162.998 76.4502 163.072 76.4096 163.135C76.3893 163.197 76.3588 163.26 76.3181 163.323C75.993 163.911 75.7288 164.509 75.5255 165.118C75.3223 165.727 75.18 166.367 75.0987 167.039C75.0378 167.333 75.0378 167.616 75.0987 167.889C75.2207 168.33 75.495 168.487 75.9218 168.361C76.247 168.277 76.5417 168.11 76.8059 167.858C77.6798 167.186 78.4724 166.378 79.1837 165.433C79.4479 165.118 79.7019 164.803 79.9458 164.488C80.1897 164.153 80.4437 163.817 80.7079 163.481C80.7689 163.397 80.84 163.313 80.9213 163.229C81.0026 163.124 81.0941 163.114 81.1957 163.197C81.2973 163.281 81.3075 163.376 81.2262 163.481C81.1449 163.565 81.0839 163.649 81.0433 163.733C80.5149 164.53 79.956 165.307 79.3666 166.063C78.7976 166.798 78.1675 167.49 77.4766 168.141C77.253 168.351 77.0294 168.54 76.8059 168.708C76.5823 168.876 76.3283 169.012 76.0438 169.117C75.5763 169.285 75.1597 169.264 74.7939 169.054C74.4281 168.865 74.1639 168.529 74.0013 168.047C73.8997 167.669 73.859 167.301 73.8794 166.945C73.92 166.567 73.981 166.189 74.0623 165.811C74.1232 165.58 74.1842 165.339 74.2452 165.087C74.3265 164.835 74.4078 164.593 74.489 164.363C74.5907 164.132 74.6821 163.901 74.7634 163.67C74.865 163.439 74.9666 163.197 75.0683 162.946C74.9463 162.904 74.8244 162.883 74.7024 162.883C74.5805 162.862 74.4687 162.83 74.3671 162.788C73.8793 162.662 73.5034 162.421 73.2392 162.064C72.975 161.707 72.8632 161.256 72.9038 160.71C73.0258 159.241 73.483 157.908 74.2757 156.711C74.4586 156.396 74.7126 156.123 75.0378 155.892C75.2004 155.766 75.3731 155.682 75.556 155.64C75.7592 155.598 75.9625 155.64 76.1657 155.766C76.5315 156.039 76.6433 156.417 76.501 156.9C76.4401 157.152 76.3588 157.446 76.2572 157.782C75.8507 158.789 75.3629 159.765 74.7939 160.71C74.7329 160.836 74.6618 160.962 74.5805 161.088C74.5195 161.214 74.4484 161.35 74.3671 161.497ZM75.3731 157.309C75.0276 157.792 74.7532 158.296 74.55 158.821C74.3671 159.346 74.2248 159.902 74.1232 160.49C74.2655 160.322 74.4078 160.101 74.55 159.828C74.6923 159.534 74.8244 159.241 74.9463 158.947C75.0683 158.632 75.1699 158.327 75.2512 158.034C75.3325 157.74 75.3731 157.498 75.3731 157.309Z" fill="#FFFFFF"/>
<path d="M80.5889 166.756C80.7311 166.735 80.8327 166.693 80.8937 166.63C80.975 166.567 81.036 166.504 81.0766 166.441C81.605 165.706 82.1436 164.992 82.6923 164.3C83.2614 163.586 83.8304 162.872 84.3995 162.158C84.562 161.969 84.7043 161.781 84.8262 161.592C84.9685 161.382 85.1209 161.172 85.2835 160.962C85.5477 160.626 85.8526 160.542 86.1981 160.71C86.5029 160.899 86.5842 161.193 86.4419 161.592C86.3606 161.823 86.2692 162.053 86.1676 162.284C86.0863 162.515 85.9948 162.746 85.8932 162.977C85.5884 163.796 85.375 164.625 85.253 165.465C85.2327 165.57 85.2225 165.664 85.2225 165.748C85.2225 165.811 85.2225 165.895 85.2225 166C85.2225 166.231 85.3445 166.315 85.5884 166.252C85.8526 166.189 86.1269 166.031 86.4115 165.779C86.757 165.486 87.0821 165.192 87.387 164.898C87.6918 164.583 87.9967 164.258 88.3015 163.922C88.4235 163.775 88.5454 163.638 88.6673 163.512C88.7893 163.365 88.9214 163.229 89.0636 163.103C89.1652 163.019 89.2669 162.967 89.3685 162.946C89.4701 162.904 89.5717 162.946 89.6733 163.072C89.7546 163.176 89.7648 163.271 89.7038 163.355C89.6632 163.439 89.592 163.523 89.4904 163.607C89.084 163.922 88.708 164.268 88.3625 164.646C88.017 165.003 87.6715 165.381 87.326 165.779C87.0008 166.178 86.6248 166.535 86.1981 166.85C85.9745 167.018 85.7408 167.144 85.4969 167.228C85.2734 167.291 85.0295 167.249 84.7653 167.102C84.5011 166.955 84.3283 166.766 84.247 166.535C84.1657 166.283 84.1149 166.021 84.0946 165.748C84.0946 165.433 84.1149 165.118 84.1556 164.803C84.2166 164.488 84.2877 164.174 84.369 163.859C84.4096 163.691 84.4604 163.512 84.5214 163.323C84.5824 163.135 84.6433 162.925 84.7043 162.694C84.5417 162.757 84.4299 162.83 84.369 162.914C84.308 162.998 84.247 163.093 84.1861 163.197C83.3731 164.247 82.6009 165.36 81.8692 166.535C81.7473 166.724 81.6152 166.913 81.4729 167.102C81.351 167.27 81.2087 167.438 81.0461 167.606C80.9039 167.753 80.7514 167.858 80.5889 167.921C80.4466 168.005 80.2738 168.005 80.0706 167.921C79.8674 167.837 79.7353 167.721 79.6743 167.574C79.593 167.406 79.5321 167.228 79.4914 167.039C79.4711 166.619 79.5219 166.178 79.6438 165.716C79.8674 164.835 80.1519 163.995 80.4974 163.197C80.8632 162.4 81.2392 161.602 81.6253 160.804C81.6457 160.762 81.6762 160.72 81.7168 160.678C81.9404 160.364 82.1944 160.269 82.4789 160.395C82.7838 160.542 82.8752 160.825 82.7533 161.245C82.7126 161.35 82.6618 161.455 82.6009 161.56C82.5602 161.665 82.5094 161.77 82.4484 161.875C82.1842 162.421 81.9302 162.967 81.6863 163.512C81.4628 164.037 81.2494 164.583 81.0461 165.15C80.8632 165.654 80.7108 166.189 80.5889 166.756Z" fill="#FFFFFF"/>
<path d="M97.5177 163.135C97.5583 163.323 97.5482 163.481 97.4872 163.607C97.4262 163.712 97.3551 163.817 97.2738 163.922C96.1764 165.244 95.0179 166.504 93.7985 167.7C93.1685 168.351 92.4877 168.886 91.7561 169.306C90.9228 169.789 90.181 169.873 89.5307 169.558C88.9006 169.243 88.5043 168.592 88.3418 167.606C88.3011 167.417 88.2706 167.228 88.2503 167.039C88.2503 166.85 88.2706 166.661 88.3113 166.472C88.5958 164.142 89.49 162.137 90.9939 160.458C91.441 159.996 91.9491 159.639 92.5182 159.387C93.1888 159.115 93.7681 159.199 94.2558 159.639C94.4997 159.87 94.642 160.133 94.6826 160.427C94.7232 160.72 94.7029 161.035 94.6216 161.371C94.5607 161.581 94.4794 161.781 94.3777 161.969C94.2965 162.158 94.1745 162.337 94.0119 162.505C93.9713 162.547 93.9205 162.589 93.8595 162.631C93.8189 162.652 93.7782 162.641 93.7376 162.599C93.6563 162.557 93.6258 162.515 93.6461 162.473C93.6664 162.41 93.6868 162.358 93.7071 162.316C93.7477 162.148 93.7884 161.98 93.829 161.812C93.8697 161.623 93.9103 161.445 93.951 161.277C93.9713 161.109 93.9713 160.962 93.951 160.836C93.9306 160.689 93.8493 160.563 93.7071 160.458C93.5648 160.353 93.4226 160.311 93.2803 160.332C93.138 160.353 92.9958 160.406 92.8535 160.49C92.2235 160.846 91.6849 161.371 91.2378 162.064C90.8314 162.715 90.4757 163.386 90.1708 164.079C89.8863 164.772 89.6831 165.517 89.5612 166.315C89.5205 166.567 89.5002 166.819 89.5002 167.07C89.5205 167.322 89.5713 167.564 89.6526 167.795C89.8965 168.55 90.3944 168.823 91.1464 168.613C91.6748 168.445 92.1422 168.194 92.5487 167.858C94.1135 166.745 95.5158 165.402 96.7556 163.827C96.8572 163.68 96.9588 163.544 97.0604 163.418C97.1823 163.292 97.3348 163.197 97.5177 163.135Z" fill="#FFFFFF"/>
<path d="M101.264 163.796C101.081 163.88 100.908 163.974 100.745 164.079C100.603 164.184 100.451 164.3 100.288 164.426C99.4346 165.055 98.6725 165.769 98.0019 166.567C97.3312 167.343 96.6707 168.141 96.0204 168.96C95.9187 169.107 95.8171 169.254 95.7155 169.401C95.5936 169.547 95.4818 169.705 95.3802 169.873C95.3395 169.915 95.2989 169.957 95.2582 169.999C95.2176 170.062 95.1769 170.114 95.1363 170.156C95.0347 170.261 94.9229 170.366 94.801 170.471C94.679 170.576 94.5368 170.587 94.3742 170.503C94.1303 170.377 94.0795 170.093 94.2218 169.652C94.303 169.317 94.425 168.97 94.5876 168.613C95.3192 166.766 96.1016 164.971 96.9349 163.229C97.7681 161.466 98.6725 159.734 99.648 158.034C100.055 157.299 100.481 156.596 100.928 155.924C101.376 155.252 101.833 154.58 102.3 153.909C102.402 153.783 102.503 153.667 102.605 153.562C102.707 153.436 102.808 153.321 102.91 153.216C103.154 152.964 103.408 152.933 103.672 153.121C103.916 153.268 103.987 153.52 103.885 153.877C103.784 154.15 103.692 154.423 103.611 154.696C103.53 154.969 103.428 155.231 103.306 155.483C102.737 156.868 102.077 158.18 101.325 159.419C100.573 160.636 99.6785 161.77 98.642 162.82C98.5811 162.883 98.5201 162.946 98.4591 163.009C98.3982 163.072 98.3474 163.145 98.3067 163.229C98.0222 163.838 97.7275 164.446 97.4227 165.055C97.1381 165.643 96.8739 166.252 96.6301 166.882C96.5691 166.986 96.5691 167.07 96.6301 167.133C96.7317 167.091 96.813 167.028 96.8739 166.945C96.9349 166.84 97.006 166.735 97.0873 166.63C97.5344 166.084 98.0019 165.559 98.4896 165.055C98.9774 164.53 99.4855 164.037 100.014 163.575C100.258 163.365 100.502 163.176 100.745 163.009C100.989 162.82 101.254 162.652 101.538 162.505C101.884 162.337 102.168 162.337 102.392 162.505C102.636 162.673 102.747 162.956 102.727 163.355C102.686 163.691 102.615 164.016 102.514 164.331C102.412 164.625 102.3 164.929 102.178 165.244C102.056 165.538 101.934 165.842 101.812 166.157C101.691 166.451 101.589 166.756 101.508 167.07C101.487 167.133 101.467 167.196 101.447 167.259C101.447 167.301 101.467 167.354 101.508 167.417C101.67 167.375 101.823 167.312 101.965 167.228C102.107 167.123 102.26 167.018 102.422 166.913C103.682 166.01 104.83 164.961 105.867 163.764L106.263 163.355C106.385 163.229 106.497 163.197 106.599 163.26C106.68 163.323 106.7 163.386 106.66 163.449C106.639 163.512 106.609 163.565 106.568 163.607C106.527 163.649 106.487 163.701 106.446 163.764C106.406 163.806 106.365 163.859 106.324 163.922C105.735 164.614 105.105 165.265 104.434 165.874C103.763 166.483 103.093 167.091 102.422 167.7C102.117 167.973 101.812 168.183 101.508 168.33C101.182 168.456 100.898 168.445 100.654 168.298C100.43 168.152 100.309 167.9 100.288 167.543C100.268 167.249 100.288 166.966 100.349 166.693C100.43 166.42 100.522 166.147 100.624 165.874C100.725 165.601 100.827 165.339 100.928 165.087C101.03 164.814 101.132 164.541 101.233 164.268C101.254 164.205 101.274 164.142 101.294 164.079C101.315 163.995 101.304 163.901 101.264 163.796ZM101.386 157.75C101.284 157.834 101.223 157.897 101.203 157.939C101.182 157.96 101.162 158.044 101.142 158.191C101.243 157.981 101.325 157.834 101.386 157.75Z" fill="#FFFFFF"/>
<path d="M111.806 165.433C111.907 165.475 111.988 165.486 112.049 165.465C112.131 165.444 112.222 165.412 112.324 165.37C112.954 165.181 113.553 164.95 114.122 164.677C114.712 164.405 115.271 164.058 115.799 163.638C115.86 163.596 115.911 163.565 115.951 163.544C116.012 163.502 116.073 163.46 116.134 163.418C116.236 163.334 116.338 163.26 116.439 163.197C116.561 163.135 116.673 163.187 116.775 163.355C116.876 163.502 116.876 163.617 116.775 163.701C116.693 163.764 116.602 163.838 116.5 163.922C116.48 163.943 116.46 163.953 116.439 163.953C116.419 163.953 116.399 163.964 116.378 163.985C115.667 164.551 114.915 165.013 114.122 165.37C113.33 165.727 112.507 166.01 111.653 166.22C111.348 166.325 111.115 166.493 110.952 166.724C110.81 166.955 110.657 167.175 110.495 167.385C110.332 167.595 110.149 167.805 109.946 168.015C109.804 168.204 109.641 168.372 109.458 168.519C108.95 168.939 108.473 169.065 108.025 168.897C107.599 168.729 107.304 168.319 107.141 167.669C107.019 167.165 107.019 166.64 107.141 166.094C107.202 165.8 107.111 165.57 106.867 165.402C106.278 164.961 105.922 164.457 105.8 163.89C105.698 163.302 105.851 162.704 106.257 162.095C107.192 160.584 108.533 159.639 110.281 159.262C110.322 159.241 110.383 159.23 110.464 159.23C111.277 159.125 111.897 159.283 112.324 159.702C112.771 160.122 112.974 160.762 112.933 161.623C112.893 162.148 112.812 162.652 112.69 163.135C112.568 163.617 112.395 164.1 112.171 164.583C112.11 164.73 112.039 164.866 111.958 164.992C111.897 165.118 111.846 165.265 111.806 165.433ZM108.544 165.402C108.808 165.507 109.062 165.591 109.306 165.654C109.55 165.696 109.794 165.716 110.037 165.716C110.261 165.758 110.434 165.675 110.556 165.465C110.8 165.024 111.023 164.572 111.226 164.111C111.43 163.649 111.582 163.166 111.684 162.662C111.745 162.41 111.795 162.158 111.836 161.906C111.877 161.655 111.877 161.392 111.836 161.119C111.775 160.804 111.673 160.595 111.531 160.49C111.389 160.364 111.165 160.29 110.86 160.269C110.576 160.269 110.312 160.311 110.068 160.395C109.824 160.479 109.58 160.574 109.336 160.678C108.808 160.951 108.33 161.287 107.903 161.686C107.497 162.064 107.152 162.526 106.867 163.072C106.684 163.428 106.643 163.754 106.745 164.048C106.867 164.342 107.101 164.572 107.446 164.74C107.507 164.593 107.568 164.457 107.629 164.331C107.69 164.184 107.761 164.048 107.842 163.922C107.903 163.796 107.964 163.68 108.025 163.575C108.107 163.449 108.198 163.334 108.3 163.229C108.523 162.998 108.757 162.977 109.001 163.166C109.245 163.313 109.316 163.544 109.214 163.859C109.174 163.922 109.133 163.995 109.092 164.079C109.072 164.142 109.042 164.205 109.001 164.268C108.92 164.436 108.828 164.614 108.727 164.803C108.645 164.971 108.584 165.171 108.544 165.402ZM109.854 166.441C109.59 166.42 109.336 166.388 109.092 166.346C108.666 166.241 108.412 166.231 108.33 166.315C108.269 166.378 108.249 166.63 108.269 167.07C108.269 167.28 108.279 167.438 108.3 167.543C108.361 167.837 108.513 167.889 108.757 167.7C108.981 167.532 109.174 167.354 109.336 167.165C109.519 166.976 109.692 166.735 109.854 166.441Z" fill="#FFFFFF"/>
<path d="M125.158 163.229C124.731 163.586 124.335 163.943 123.969 164.3C123.624 164.656 123.278 165.013 122.933 165.37C122.851 165.475 122.77 165.57 122.689 165.654C122.608 165.737 122.516 165.832 122.414 165.937C122.171 166.147 121.937 166.22 121.713 166.157C121.49 166.073 121.327 165.874 121.226 165.559C121.165 165.37 121.134 165.192 121.134 165.024C121.134 164.835 121.154 164.646 121.195 164.457C121.236 164.163 121.307 163.88 121.408 163.607C121.51 163.313 121.612 163.03 121.713 162.757C121.856 162.442 121.998 162.127 122.14 161.812C122.282 161.497 122.425 161.172 122.567 160.836C122.608 160.731 122.658 160.636 122.719 160.553C122.78 160.448 122.79 160.332 122.75 160.206C122.648 160.248 122.557 160.311 122.475 160.395C122.414 160.458 122.343 160.532 122.262 160.616C121.124 161.686 120.067 162.83 119.092 164.048C118.136 165.244 117.232 166.504 116.378 167.826C116.257 168.015 116.124 168.194 115.982 168.361C115.86 168.55 115.677 168.676 115.433 168.739C114.946 168.844 114.702 168.666 114.702 168.204C114.702 168.099 114.712 167.994 114.732 167.889C114.732 167.763 114.742 167.648 114.763 167.543C115.027 166.556 115.332 165.591 115.677 164.646C116.023 163.701 116.439 162.788 116.927 161.906C116.968 161.802 117.019 161.707 117.08 161.623C117.161 161.518 117.242 161.413 117.324 161.308C117.425 161.182 117.547 161.109 117.689 161.088C117.832 161.067 117.954 161.088 118.055 161.151C118.34 161.34 118.421 161.592 118.299 161.906C118.258 161.99 118.218 162.074 118.177 162.158C118.136 162.221 118.096 162.295 118.055 162.379C117.811 162.82 117.588 163.271 117.384 163.733C117.181 164.174 116.988 164.635 116.805 165.118C116.765 165.223 116.724 165.318 116.683 165.402C116.663 165.486 116.673 165.58 116.714 165.685C116.836 165.622 116.927 165.538 116.988 165.433C117.049 165.328 117.12 165.223 117.202 165.118C117.872 164.174 118.563 163.281 119.275 162.442C120.006 161.581 120.778 160.752 121.591 159.954C121.856 159.702 122.12 159.461 122.384 159.23C122.668 158.978 122.953 158.737 123.238 158.506C123.359 158.401 123.481 158.327 123.603 158.285C123.746 158.222 123.898 158.243 124.061 158.348C124.223 158.453 124.315 158.569 124.335 158.695C124.376 158.821 124.376 158.968 124.335 159.136C124.274 159.513 124.162 159.87 124 160.206C123.695 160.899 123.38 161.592 123.055 162.284C122.75 162.956 122.435 163.638 122.11 164.331C122.069 164.436 122.018 164.551 121.957 164.677C121.896 164.803 121.886 164.94 121.927 165.087C122.028 165.045 122.099 164.992 122.14 164.929C122.181 164.866 122.232 164.793 122.293 164.709C123.024 163.743 123.908 162.872 124.945 162.095L125.219 161.906C125.524 161.739 125.788 161.718 126.012 161.844C126.235 161.948 126.367 162.179 126.408 162.536C126.449 162.725 126.449 162.914 126.408 163.103C126.388 163.271 126.357 163.439 126.317 163.607C126.256 163.922 126.164 164.237 126.042 164.551C125.92 164.845 125.808 165.15 125.707 165.465C125.605 165.717 125.514 165.979 125.432 166.252C125.351 166.504 125.26 166.756 125.158 167.007C125.117 167.133 125.087 167.27 125.067 167.417C125.046 167.543 125.097 167.658 125.219 167.763C125.341 167.868 125.463 167.9 125.585 167.858C125.707 167.795 125.829 167.732 125.951 167.669C126.215 167.543 126.459 167.396 126.682 167.228C126.926 167.06 127.16 166.892 127.383 166.724C127.993 166.241 128.572 165.737 129.121 165.213C129.67 164.667 130.198 164.111 130.706 163.544C130.788 163.46 130.859 163.386 130.92 163.323C130.981 163.239 131.052 163.166 131.133 163.103C131.275 163.019 131.387 163.019 131.468 163.103C131.529 163.166 131.54 163.271 131.499 163.418C131.458 163.46 131.418 163.512 131.377 163.575C131.357 163.638 131.326 163.691 131.286 163.733C130.595 164.572 129.883 165.381 129.152 166.157C128.42 166.913 127.597 167.595 126.682 168.204C126.54 168.309 126.408 168.403 126.286 168.487C126.164 168.571 126.022 168.645 125.859 168.708C125.311 168.918 124.833 168.876 124.426 168.582C124.04 168.288 123.868 167.837 123.908 167.228C123.969 166.766 124.091 166.294 124.274 165.811C124.376 165.517 124.487 165.234 124.609 164.961C124.731 164.688 124.843 164.405 124.945 164.111C124.985 163.985 125.026 163.859 125.067 163.733C125.128 163.607 125.158 163.439 125.158 163.229Z" fill="#FFFFFF"/>
<path d="M136.664 165.433C136.765 165.475 136.847 165.486 136.908 165.465C136.989 165.444 137.08 165.412 137.182 165.37C137.812 165.181 138.412 164.95 138.981 164.677C139.57 164.405 140.129 164.058 140.657 163.638C140.718 163.596 140.769 163.565 140.81 163.544C140.871 163.502 140.932 163.46 140.993 163.418C141.094 163.334 141.196 163.26 141.297 163.197C141.419 163.135 141.531 163.187 141.633 163.355C141.734 163.502 141.734 163.617 141.633 163.701C141.551 163.764 141.46 163.838 141.358 163.922C141.338 163.943 141.318 163.953 141.297 163.953C141.277 163.953 141.257 163.964 141.236 163.985C140.525 164.551 139.773 165.013 138.981 165.37C138.188 165.727 137.365 166.01 136.511 166.22C136.206 166.325 135.973 166.493 135.81 166.724C135.668 166.955 135.515 167.175 135.353 167.385C135.19 167.595 135.007 167.805 134.804 168.015C134.662 168.204 134.499 168.372 134.316 168.519C133.808 168.939 133.331 169.065 132.884 168.897C132.457 168.729 132.162 168.319 132 167.669C131.878 167.165 131.878 166.64 132 166.094C132.061 165.8 131.969 165.57 131.725 165.402C131.136 164.961 130.78 164.457 130.658 163.89C130.557 163.302 130.709 162.704 131.115 162.095C132.05 160.584 133.392 159.639 135.139 159.262C135.18 159.241 135.241 159.23 135.322 159.23C136.135 159.125 136.755 159.283 137.182 159.702C137.629 160.122 137.832 160.762 137.792 161.623C137.751 162.148 137.67 162.652 137.548 163.135C137.426 163.617 137.253 164.1 137.03 164.583C136.969 164.73 136.897 164.866 136.816 164.992C136.755 165.118 136.704 165.265 136.664 165.433ZM133.402 165.402C133.666 165.507 133.92 165.591 134.164 165.654C134.408 165.696 134.652 165.716 134.896 165.716C135.119 165.758 135.292 165.675 135.414 165.465C135.658 165.024 135.881 164.572 136.084 164.111C136.288 163.649 136.44 163.166 136.542 162.662C136.603 162.41 136.654 162.158 136.694 161.906C136.735 161.655 136.735 161.392 136.694 161.119C136.633 160.804 136.532 160.595 136.389 160.49C136.247 160.364 136.024 160.29 135.719 160.269C135.434 160.269 135.17 160.311 134.926 160.395C134.682 160.479 134.438 160.574 134.194 160.678C133.666 160.951 133.188 161.287 132.762 161.686C132.355 162.064 132.01 162.526 131.725 163.072C131.542 163.428 131.502 163.754 131.603 164.048C131.725 164.342 131.959 164.572 132.304 164.74C132.365 164.593 132.426 164.457 132.487 164.331C132.548 164.184 132.619 164.048 132.701 163.922C132.762 163.796 132.823 163.68 132.884 163.575C132.965 163.449 133.056 163.334 133.158 163.229C133.382 162.998 133.615 162.977 133.859 163.166C134.103 163.313 134.174 163.544 134.073 163.859C134.032 163.922 133.991 163.995 133.951 164.079C133.93 164.142 133.9 164.205 133.859 164.268C133.778 164.436 133.686 164.614 133.585 164.803C133.503 164.971 133.442 165.171 133.402 165.402ZM134.713 166.441C134.448 166.42 134.194 166.388 133.951 166.346C133.524 166.241 133.27 166.231 133.188 166.315C133.127 166.378 133.107 166.63 133.127 167.07C133.127 167.28 133.138 167.438 133.158 167.543C133.219 167.837 133.371 167.889 133.615 167.7C133.839 167.532 134.032 167.354 134.194 167.165C134.377 166.976 134.55 166.735 134.713 166.441Z" fill="#FFFFFF"/>
<path d="M140.078 173.998C139.611 174.019 139.255 173.893 139.011 173.62C138.767 173.368 138.656 173.011 138.676 172.549C138.676 172.255 138.727 171.972 138.828 171.699C138.91 171.447 139.021 171.195 139.164 170.943C139.59 170.209 140.088 169.537 140.657 168.928C141.227 168.319 141.826 167.732 142.456 167.165C142.741 166.892 143.035 166.651 143.34 166.441C143.523 166.294 143.554 166.126 143.432 165.937C143.208 165.622 142.974 165.318 142.73 165.024C142.487 164.73 142.222 164.457 141.938 164.205C141.775 164.037 141.613 163.88 141.45 163.733C141.287 163.565 141.135 163.397 140.993 163.229C140.403 162.494 140.332 161.739 140.779 160.962C141.348 159.954 142.161 159.241 143.218 158.821C143.34 158.779 143.462 158.747 143.584 158.726C143.726 158.684 143.858 158.684 143.98 158.726C144.387 158.768 144.59 158.957 144.59 159.293C144.59 159.587 144.417 159.765 144.072 159.828C143.218 160.038 142.517 160.542 141.968 161.34C141.806 161.592 141.724 161.812 141.724 162.001C141.724 162.169 141.826 162.358 142.029 162.568C142.253 162.799 142.466 163.019 142.669 163.229C142.893 163.439 143.106 163.659 143.31 163.89C143.696 164.247 144.031 164.677 144.316 165.181C144.458 165.412 144.641 165.444 144.864 165.276C145.332 164.919 145.799 164.604 146.267 164.331C146.754 164.058 147.242 163.775 147.73 163.481C147.832 163.439 147.923 163.397 148.004 163.355C148.106 163.292 148.208 163.239 148.309 163.197C148.472 163.114 148.604 163.135 148.705 163.26C148.766 163.407 148.716 163.544 148.553 163.67C148.451 163.733 148.35 163.796 148.248 163.859C148.167 163.922 148.075 163.985 147.974 164.048C147.486 164.3 147.008 164.583 146.541 164.898C146.094 165.192 145.657 165.507 145.23 165.842C145.108 165.947 145.027 166.042 144.986 166.126C144.946 166.21 144.946 166.336 144.986 166.504C145.21 167.112 145.281 167.7 145.2 168.267C145.118 168.855 144.966 169.432 144.742 169.999C144.438 170.734 144.041 171.384 143.554 171.951C143.066 172.539 142.476 173.032 141.785 173.431C141.501 173.599 141.216 173.725 140.932 173.809C140.647 173.914 140.363 173.977 140.078 173.998ZM143.858 167.007C143.818 167.028 143.787 167.039 143.767 167.039C143.747 167.039 143.716 167.06 143.675 167.102C142.964 167.648 142.304 168.236 141.694 168.865C141.084 169.495 140.536 170.188 140.048 170.943C139.946 171.09 139.865 171.237 139.804 171.384C139.723 171.552 139.662 171.72 139.621 171.888C139.58 172.056 139.54 172.224 139.499 172.392C139.438 172.56 139.479 172.707 139.621 172.833C139.743 172.959 139.885 172.99 140.048 172.927C140.21 172.885 140.363 172.833 140.505 172.77C141.542 172.308 142.344 171.678 142.913 170.88C143.482 170.083 143.858 169.117 144.041 167.984C144.082 167.606 144.021 167.28 143.858 167.007Z" fill="#FFFFFF"/>
<path d="M156.522 163.135C156.563 163.323 156.553 163.481 156.492 163.607C156.431 163.712 156.36 163.817 156.279 163.922C155.181 165.244 154.023 166.504 152.803 167.7C152.173 168.351 151.492 168.886 150.761 169.306C149.928 169.789 149.186 169.873 148.535 169.558C147.905 169.243 147.509 168.592 147.346 167.606C147.306 167.417 147.275 167.228 147.255 167.039C147.255 166.85 147.275 166.661 147.316 166.472C147.601 164.142 148.495 162.137 149.999 160.458C150.446 159.996 150.954 159.639 151.523 159.387C152.194 159.115 152.773 159.199 153.261 159.639C153.504 159.87 153.647 160.133 153.687 160.427C153.728 160.72 153.708 161.035 153.626 161.371C153.565 161.581 153.484 161.781 153.382 161.969C153.301 162.158 153.179 162.337 153.017 162.505C152.976 162.547 152.925 162.589 152.864 162.631C152.824 162.652 152.783 162.641 152.742 162.599C152.661 162.557 152.631 162.515 152.651 162.473C152.671 162.41 152.691 162.358 152.712 162.316C152.752 162.148 152.793 161.98 152.834 161.812C152.874 161.623 152.915 161.445 152.956 161.277C152.976 161.109 152.976 160.962 152.956 160.836C152.935 160.689 152.854 160.563 152.712 160.458C152.57 160.353 152.427 160.311 152.285 160.332C152.143 160.353 152 160.406 151.858 160.49C151.228 160.846 150.69 161.371 150.243 162.064C149.836 162.715 149.48 163.386 149.176 164.079C148.891 164.772 148.688 165.517 148.566 166.315C148.525 166.567 148.505 166.819 148.505 167.07C148.525 167.322 148.576 167.564 148.657 167.795C148.901 168.55 149.399 168.823 150.151 168.613C150.679 168.445 151.147 168.194 151.553 167.858C153.118 166.745 154.521 165.402 155.76 163.827C155.862 163.68 155.964 163.544 156.065 163.418C156.187 163.292 156.339 163.197 156.522 163.135Z" fill="#FFFFFF"/>
<path d="M161.945 163.135C162.006 163.218 162.016 163.292 161.976 163.355C161.935 163.418 161.894 163.481 161.854 163.544C161.671 163.775 161.488 164.006 161.305 164.237C161.122 164.447 160.939 164.667 160.756 164.898C160.329 165.402 159.892 165.884 159.445 166.346C158.998 166.808 158.551 167.28 158.104 167.763C157.657 168.225 157.19 168.603 156.702 168.897C156.438 169.044 156.173 169.149 155.909 169.212C155.665 169.275 155.401 169.222 155.117 169.054C154.832 168.886 154.649 168.666 154.568 168.393C154.466 168.12 154.426 167.826 154.446 167.511C154.446 167.175 154.497 166.85 154.598 166.535C154.68 166.22 154.771 165.905 154.873 165.591C155.035 165.15 155.208 164.719 155.391 164.3C155.574 163.859 155.777 163.428 156.001 163.009C156.021 162.967 156.041 162.935 156.062 162.914C156.082 162.872 156.102 162.83 156.123 162.788C156.387 162.368 156.671 162.263 156.976 162.473C157.281 162.641 157.342 162.935 157.159 163.355C156.996 163.712 156.834 164.058 156.671 164.394C156.529 164.73 156.377 165.076 156.214 165.433C155.99 165.958 155.797 166.535 155.635 167.165C155.594 167.27 155.574 167.385 155.574 167.511C155.574 167.616 155.574 167.721 155.574 167.826C155.574 168.246 155.777 168.403 156.184 168.298C156.488 168.215 156.793 168.057 157.098 167.826C157.464 167.574 157.82 167.27 158.165 166.913C158.734 166.367 159.293 165.811 159.842 165.244C160.39 164.677 160.909 164.079 161.396 163.449C161.478 163.365 161.528 163.302 161.549 163.26C161.61 163.197 161.671 163.145 161.732 163.103C161.793 163.061 161.864 163.072 161.945 163.135ZM157.616 161.119C157.515 161.077 157.454 161.014 157.433 160.93C157.433 160.825 157.433 160.71 157.433 160.584C157.515 160.29 157.596 159.996 157.677 159.702C157.759 159.408 157.891 159.115 158.074 158.821C158.155 158.695 158.267 158.621 158.409 158.6C158.551 158.579 158.683 158.6 158.805 158.663C159.09 158.852 159.151 159.104 158.988 159.419C158.704 159.986 158.368 160.479 157.982 160.899C157.86 161.067 157.738 161.14 157.616 161.119Z" fill="#FFFFFF"/>
<path d="M143.035 157.311C143.056 157.395 143.117 157.458 143.218 157.5C143.34 157.521 143.462 157.448 143.584 157.28C143.97 156.86 144.305 156.366 144.59 155.8C144.753 155.485 144.692 155.233 144.407 155.044C144.285 154.981 144.153 154.96 144.011 154.981C143.869 155.002 143.757 155.075 143.675 155.201C143.493 155.495 143.36 155.789 143.279 156.083L143.035 156.965V157.311Z" fill="#FFFFFF"/>
</svg>
