<?xml version="1.0" encoding="UTF-8"?> <!-- Generator: Adobe Illustrator 25.4.1, SVG Export Plug-In . SVG Version: 6.00 Build 0) --> <svg xmlns="http://www.w3.org/2000/svg" xmlns:xlink="http://www.w3.org/1999/xlink" version="1.1" id="Layer_1" x="0px" y="0px" width="160px" height="160px" viewBox="0 0 160 160" style="enable-background:new 0 0 160 160;" xml:space="preserve"> <style type="text/css"> .st0{fill:#FFFFFF;} </style> <g> <path class="st0" d="M28.7,29.5c-1.1-0.6-2.4-1.2-3.9-1.6s-3.1-0.9-4.6-1.5c-1.5-0.6-2.8-1.6-3.9-2.9c-1.1-1.3-1.6-3.1-1.6-5.1 c0-2.6,1-4.7,3.1-6.5s4.7-2.7,8-2.7c1.3,0,2.5,0.2,3.7,0.5c1.2,0.3,2.2,0.7,3,1.1c0.8,0.4,1.4,0.8,2,1.2c0.6,0.4,1,0.8,1.2,1.1 l0.4,0.4l-4,4.3c-0.2-0.2-0.4-0.5-0.7-0.8s-1-0.7-2-1.2c-1-0.5-2.1-0.7-3.1-0.7c-1.3,0-2.3,0.3-3.1,1c-0.8,0.7-1.2,1.5-1.2,2.4 c0,1.1,0.5,1.9,1.6,2.5c1.1,0.6,2.4,1.2,3.9,1.6c1.5,0.4,3,1,4.6,1.5c1.5,0.6,2.8,1.6,3.9,2.9s1.6,3.1,1.6,5.1 c0,2.9-1.1,5.3-3.2,7.1c-2.1,1.8-5,2.8-8.8,2.8c-1.5,0-2.9-0.2-4.3-0.5c-1.4-0.4-2.5-0.8-3.4-1.3s-1.7-1-2.3-1.5 c-0.7-0.5-1.2-0.9-1.5-1.3l-0.5-0.5l4.1-4c0.2,0.2,0.5,0.5,0.9,0.9c0.4,0.4,1.2,0.9,2.5,1.5c1.3,0.6,2.6,0.9,4,0.9 c1.6,0,2.9-0.4,3.8-1.1c0.9-0.8,1.4-1.7,1.4-2.9C30.3,31,29.8,30.1,28.7,29.5z"></path> <path class="st0" d="M94.9,35.2v6.1H71.2V9.7h23.2v6.1H78v6.3h12.8v6.1H78v7H94.9z"></path> <path class="st0" d="M130.6,9.7c-1.5,0.4-2.7,1-3.7,1.6c-1,0.6-1.8,1.2-2.6,1.8s-1.3,1.1-1.6,1.6l-0.5,0.7l4.3,4.3 c0.1-0.1,0.2-0.3,0.4-0.5c0.2-0.2,0.5-0.6,1-1.1c0.5-0.5,1.1-1,1.7-1.4s1.5-0.7,2.5-1.1s2.1-0.5,3.1-0.5c2.9,0,5.4,1,7.4,3 s3,4.4,3,7.4s-1,5.4-3,7.4s-4.4,3-7.4,3c-1.1,0-2.2-0.2-3.3-0.5c-1-0.3-1.9-0.7-2.6-1.1c-0.7-0.4-1.3-0.9-1.8-1.3 c-0.5-0.4-0.9-0.8-1.1-1.1l-0.4-0.5l-4.1,4.3c0.1,0.2,0.3,0.4,0.5,0.7c0.2,0.3,0.8,0.8,1.6,1.5c0.8,0.7,1.7,1.4,2.7,1.9 c0.9,0.5,2.2,1.1,3.7,1.5c1.5,0.5,3.1,0.7,4.8,0.7c4.8,0,8.9-1.6,12.2-4.8c3.3-3.2,5-7.1,5-11.6s-1.7-8.4-5-11.6 c-3.3-3.2-7.4-4.8-12.2-4.8C133.7,9.1,132.1,9.3,130.6,9.7z"></path> <path class="st0" d="M37.5,63.8h-14c-3.1,0-5.7,1-7.8,3s-3.1,4.5-3.1,7.4c0,1.3,0.2,2.4,0.6,3.5c0.4,1.1,0.9,2,1.4,2.7 c0.5,0.7,1.1,1.3,1.6,1.7c0.6,0.5,1,0.8,1.4,1l0.6,0.3l-6.8,11.9h7.2l6.1-11h5.8v11h6.8V63.8z M20.7,71.1c0.8-0.8,1.8-1.2,3.1-1.2 h7v8.3h-7c-1.2,0-2.3-0.4-3.1-1.2c-0.8-0.8-1.2-1.7-1.2-2.9C19.5,72.9,19.9,71.9,20.7,71.1z"></path> <path class="st0" d="M94.9,89.2v6.1H71.2V63.8h23.2v6.1H78v6.3h12.8v6.1H78v7H94.9z"></path> <path class="st0" d="M150.4,63.8v6.1h-9v25.4h-6.8V69.9h-9v-6.1H150.4z"></path> <path class="st0" d="M13.5,134.9c1.2,0,2.3,0.4,3.1,1.2c0.8,0.8,1.2,1.8,1.2,2.9c0,1.2-0.4,2.1-1.2,2.9c-0.8,0.8-1.8,1.2-3.1,1.2 H9.7v5.1h-1v-13.3H13.5z M9.7,135.8v6.3h3.8c1,0,1.8-0.3,2.4-0.9c0.6-0.6,0.9-1.3,0.9-2.3c0-0.9-0.3-1.7-0.9-2.3s-1.4-0.9-2.4-0.9 H9.7z"></path> <path class="st0" d="M27.9,148.2v-13.3h1v12.4H36v0.9H27.9z"></path> <path class="st0" d="M54.8,147.3v0.9h-9.1v-13.3h9v1h-8v5h6.5v1h-6.5v5.5H54.8z"></path> <path class="st0" d="M65.7,144.3l-1.6,3.9H63l5.5-13.3h1l5.5,13.3h-1l-1.6-3.9H65.7z M69,136.2l-2.9,7.1H72L69,136.2z"></path> <path class="st0" d="M90.5,143.1c-0.5-0.4-1.1-0.7-1.9-0.9s-1.5-0.5-2.2-0.7c-0.7-0.2-1.3-0.6-1.9-1.2c-0.5-0.5-0.8-1.2-0.8-2.1 c0-1,0.4-1.8,1.2-2.5s1.8-1,3-1c0.5,0,0.9,0.1,1.3,0.2s0.8,0.2,1.1,0.4c0.3,0.2,0.5,0.3,0.8,0.5c0.2,0.2,0.4,0.3,0.5,0.4l0.1,0.2 l-0.7,0.7c0,0-0.1-0.1-0.1-0.1c-0.1-0.1-0.2-0.2-0.4-0.3c-0.2-0.2-0.4-0.3-0.6-0.4c-0.2-0.1-0.5-0.2-0.9-0.3 c-0.4-0.1-0.7-0.1-1.1-0.1c-1,0-1.8,0.2-2.4,0.7c-0.6,0.5-0.9,1.1-0.9,1.9c0,0.7,0.3,1.2,0.8,1.6s1.1,0.7,1.9,0.9 c0.7,0.2,1.5,0.5,2.2,0.7c0.7,0.2,1.3,0.6,1.9,1.2s0.8,1.2,0.8,2.1c0,1.1-0.4,2-1.2,2.7c-0.8,0.7-1.9,1-3.2,1 c-0.5,0-1.1-0.1-1.6-0.2c-0.5-0.1-0.9-0.3-1.2-0.5c-0.3-0.2-0.6-0.4-0.9-0.6s-0.4-0.4-0.5-0.5l-0.2-0.2l0.7-0.7 c0,0,0.1,0.1,0.1,0.2c0.1,0.1,0.2,0.2,0.4,0.4c0.2,0.2,0.5,0.4,0.7,0.5c0.3,0.2,0.6,0.3,1,0.4c0.4,0.1,0.9,0.2,1.4,0.2 c1.1,0,2-0.3,2.5-0.8c0.6-0.5,0.9-1.2,0.9-2C91.2,144,91,143.5,90.5,143.1z"></path> <path class="st0" d="M110.4,146.2c0.8-0.8,1.2-1.9,1.2-3.1v-8.2h0.9v8.2c0,1.5-0.5,2.7-1.5,3.8s-2.3,1.6-3.7,1.6s-2.7-0.5-3.7-1.6 s-1.5-2.3-1.5-3.8v-8.2h0.9v8.2c0,1.2,0.4,2.3,1.2,3.1s1.8,1.3,3,1.3C108.6,147.5,109.6,147,110.4,146.2z"></path> <path class="st0" d="M128.7,134.9c1.2,0,2.2,0.4,2.9,1.1c0.8,0.8,1.2,1.7,1.2,2.8c0,0.6-0.1,1.1-0.3,1.6c-0.2,0.5-0.4,0.8-0.7,1.1 s-0.6,0.5-0.9,0.6c-0.3,0.2-0.5,0.3-0.7,0.3l-0.3,0.1l3.2,5.7h-1.1l-3.1-5.5h-4.3v5.5h-1v-13.3H128.7z M124.6,135.8v5.9h4.1 c0.9,0,1.7-0.3,2.3-0.8s0.9-1.3,0.9-2.1s-0.3-1.6-0.9-2.1s-1.3-0.8-2.3-0.8H124.6z"></path> <path class="st0" d="M152.4,147.3v0.9h-9.1v-13.3h9v1h-8v5h6.5v1h-6.5v5.5H152.4z"></path> </g> </svg> 